<?xml version="1.0" encoding="UTF-8" standalone="no"?>
<!-- Created with Inkscape (http://www.inkscape.org/) -->
<svg xmlns:xlink="http://www.w3.org/1999/xlink" xmlns="http://www.w3.org/2000/svg" xmlns:svg="http://www.w3.org/2000/svg" version="1.1" id="svg9" width="80mm" height="80mm" viewBox="0 0 302.36222 302.36222">
  <defs id="defs13"/>
  <g id="layer1" style="display:inline">
    <circle style="fill:#ffffff;fill-opacity:1;stroke-width:0.999998" id="path3013" cx="151.18111" cy="151.18111" r="151.18111"/>
    <circle style="fill:#000000;stroke-width:1.03947" id="path144" cx="151.18111" cy="151.18111" r="135.82677"/>
    <circle style="fill:none;fill-opacity:1;stroke-width:0.999998" id="path3117" cx="151.18111" cy="-151.18111" r="129.92126" transform="scale(1,-1)"/>
    <g aria-label="dmz.rs█ " transform="matrix(-0.11196505,0.57984009,-0.57984009,-0.11196505,328.28322,31.405092)" id="text14391" style="font-size:20px;line-height:1.25;font-family:'JetBrains Mono';-inkscape-font-specification:'JetBrains Mono, Normal';fill:#00ff00;stroke-width:1.69333">
      <path d="m 476.13685,250.63495 q 0.0439,1.63941 -1.02888,2.66852 -1.07336,1.00911 -2.95268,1.05947 l -3.21885,0.0863 q -1.89931,0.0509 -3.02517,-0.89929 -1.12586,-0.95018 -1.17033,-2.60959 -0.0332,-1.23955 0.56514,-2.05587 0.59781,-0.83632 1.65314,-1.02465 l -5.3e-4,-0.02 -2.49804,0.10696 -3.19885,0.0857 -0.0482,-1.79936 14.59476,-0.39109 0.0482,1.79935 -2.09924,0.0563 5.3e-4,0.02 q 1.08337,0.11102 1.72457,0.89412 0.62122,0.78364 0.65443,2.0232 z m -1.57551,-0.558 q -0.03,-1.1196 -0.74689,-1.74062 -0.7169,-0.62101 -1.95645,-0.5878 l -2.99892,0.0804 q -1.23956,0.0332 -1.92216,0.69174 -0.68261,0.65852 -0.65261,1.77812 0.0305,1.13959 0.64747,1.76329 0.59693,0.62423 1.95645,0.5878 l 3.19885,-0.0857 q 1.33952,-0.0359 1.92216,-0.69173 0.58264,-0.65585 0.5521,-1.79544 z" id="path18669" style="stroke-width:1.69333"/>
      <path d="m 475.66287,242.80366 -10.96417,0.88709 -0.12581,-1.55492 1.45525,-0.11774 -0.003,-0.0399 q -0.74565,-0.04 -1.24286,-0.48133 -0.49883,-0.46128 -0.56012,-1.2188 -0.0581,-0.71766 0.32025,-1.2499 0.37831,-0.53224 1.07822,-0.80959 l -0.002,-0.0199 q -0.72895,-0.0815 -1.18629,-0.52604 -0.45895,-0.4645 -0.52024,-1.22203 -0.0855,-1.05654 0.66191,-1.73904 0.72585,-0.70082 1.98174,-0.80243 l 8.33277,-0.67419 0.13549,1.67453 -8.35271,0.6758 q -0.65785,0.0532 -1.01081,0.40283 -0.37289,0.35121 -0.32773,0.90939 0.0435,0.53824 0.44812,0.82655 0.40457,0.28832 1.06242,0.23509 l 8.37264,-0.67741 0.11935,1.47518 -8.3527,0.6758 q -0.65785,0.0532 -1.01081,0.40283 -0.37289,0.35121 -0.32934,0.88945 0.0452,0.55818 0.44973,0.84649 0.40457,0.28831 1.06242,0.23509 l 8.37264,-0.67741 z" id="path18671" style="stroke-width:1.69333"/>
      <path d="m 474.54968,230.25225 -1.78359,0.24246 -8.32086,-5.08553 0.80821,5.94532 -1.62506,0.22091 -1.0803,-7.94691 1.7836,-0.24246 8.33702,5.20443 -0.87555,-6.44076 1.62505,-0.22091 z" id="path18673" style="stroke-width:1.69333"/>
      <path d="m 472.2401,214.21235 q 0.13961,0.72671 -0.2057,1.26146 -0.34909,0.51511 -1.03652,0.64717 -0.72671,0.13961 -1.26146,-0.2057 -0.53853,-0.36496 -0.67813,-1.09167 -0.13961,-0.72671 0.22912,-1.24559 0.36495,-0.53853 1.09166,-0.67814 0.68743,-0.13206 1.20631,0.23667 0.51511,0.34909 0.65472,1.0758 z" id="path18675" style="stroke-width:1.69333"/>
      <path d="m 470.36864,206.18154 -10.67238,2.66465 -0.43604,-1.74639 2.03746,-0.50871 -0.01,-0.0388 q -1.06234,0.12094 -1.84798,-0.46624 -0.78564,-0.58717 -1.0957,-1.82905 -0.41666,-1.66877 0.36951,-2.8133 0.76191,-1.15909 2.60532,-1.61934 l 0.912,-0.22771 0.43604,1.74639 -0.91201,0.22771 q -2.32852,0.58137 -1.76167,2.85168 0.28584,1.14485 1.09578,1.58166 0.80993,0.43681 2.05181,0.12675 l 6.79151,-1.69569 z" id="path18677" style="stroke-width:1.69333"/>
      <path d="m 466.51533,191.3498 q 0.54312,1.75801 0.0607,2.97461 -0.5074,1.20339 -1.95967,1.65205 l -0.53132,-1.71979 q 0.72614,-0.22434 0.98714,-0.87015 0.24189,-0.63992 -0.0474,-1.57625 l -0.25975,-0.84079 q -0.29518,-0.95544 -0.87497,-1.34151 -0.58569,-0.40517 -1.35005,-0.16903 -1.35673,0.41915 -1.14498,1.71436 l 0.47694,3.03442 q 0.17772,1.11733 -0.36541,1.93403 -0.56223,0.82262 -1.76609,1.19454 -1.37584,0.42505 -2.44857,-0.26924 -1.07864,-0.7134 -1.59225,-2.37587 l -0.25975,-0.84079 q -0.47228,-1.52871 -0.003,-2.7203 0.44417,-1.20479 1.64352,-1.65904 l 0.53722,1.7389 q -0.54235,0.20942 -0.75193,0.81842 -0.21548,0.58989 0.0266,1.37335 l 0.25976,0.84079 q 0.27156,0.87901 0.82633,1.25186 0.55478,0.37286 1.2427,0.16034 1.10831,-0.34241 0.9483,-1.4024 l -0.45612,-2.83153 q -0.44431,-2.79331 2.30737,-3.64342 1.47138,-0.45457 2.59414,0.26613 1.09775,0.7075 1.64087,2.46552 z" id="path18679" style="stroke-width:1.69333"/>
      <path d="m 470.08721,183.1578 -24.75747,9.16667 -4.16667,-11.2534 24.75747,-9.16666 z" id="path18681" style="stroke-width:1.69333"/>
    </g>
  </g>
  <g id="layer6"/>
  <g id="g15" style="display:none">
    
  </g>
  <g id="layer2" style="display:inline">
    <path style="fill:#ffffff;stroke:none;stroke-width:1.51548px;stroke-linecap:butt;stroke-linejoin:miter;stroke-opacity:1" d="m 257.08567,417.77236 c 0,0 -42.28834,5.22024 -67.92891,-35.46689 -25.64057,-40.68713 14.12534,-98.10972 31.01434,-107.47543 16.889,-9.36572 36.91457,-9.05865 36.91457,-9.05865 z m 0,0 c 0,0 42.28834,5.22024 67.92891,-35.46689 25.64057,-40.68713 -14.12534,-98.10972 -31.01434,-107.47543 -16.889,-9.36572 -36.91457,-9.05865 -36.91457,-9.05865 z" id="path1093" transform="matrix(0.65985862,0,0,0.65985862,-18.459085,-17.599423)"/>
  </g>
  <g id="layer3" style="display:inline">
    <g id="g3409" style="fill:#000000;stroke-width:1.51548" transform="matrix(0.65985862,0,0,0.65985862,-18.459085,-17.599423)">
      <path style="fill:#000000;stroke:none;stroke-width:1.51547" id="path2764" d="m 240.43788,329.4122 c 0,13.44013 -10.89538,24.33551 -24.33551,24.33551 -13.44013,0 -24.33551,-10.89538 -24.33551,-24.33551 0,-13.44013 10.89538,-24.33551 24.33551,-24.33551 13.44013,0 24.33551,10.89538 24.33551,24.33551 z m 33.29558,0 c 0,13.44013 10.89538,24.33551 24.33551,24.33551 13.44013,0 24.33551,-10.89538 24.33551,-24.33551 0,-13.44013 -10.89538,-24.33551 -24.33551,-24.33551 -13.44013,0 -24.33551,10.89538 -24.33551,24.33551 z"/>
      <g id="g3117" style="fill:#000000;stroke-width:1.51548">
        <path style="fill:#000000;stroke:none;stroke-width:1.51549" id="rect2889" width="41.581539" height="1.3817739" x="176.51022" y="369.54102" transform="matrix(0.99956182,-0.02960007,0.02617484,0.99965738,0,0)" d="m 176.51022,369.54102 41.58154,0 0,1.38177 -41.58154,0 z m 141.91242,4.20205 -41.5171,-2.46057 -0.0723,1.37964 41.5171,2.46057 z"/>
        <path style="fill:#000000;stroke:none;stroke-width:1.51569" id="rect2889-6" width="29.786562" height="1.3815433" x="138.36171" y="406.77512" transform="matrix(0.98712915,-0.15992513,0.1375905,0.9904892,0,0)" d="m 138.36171,406.77512 29.78656,0 0,1.38154 h -29.78656 z m 127.87783,20.64725 -28.47537,-9.40702 -0.37665,1.32073 28.47537,9.40702 z"/>
        <path style="fill:#000000;stroke:none;stroke-width:1.51551" id="rect2889-6-8" width="25.253632" height="1.1646758" x="-28.16993" y="446.05414" transform="matrix(0.85284117,-0.52217041,0.51352316,0.85807573,0,0)" d="m -28.16993,446.05414 25.2536321,0 0,1.16467 H -28.16993 Z m 89.33199,54.36178 -11.709589,-22.49347 -1.026462,0.54003 11.709589,22.49347 z"/>
      </g>
      <path style="fill:#000000;stroke:#000000;stroke-width:1.51548px;stroke-linecap:butt;stroke-linejoin:miter;stroke-opacity:1" d="m 257.08567,393.01103 h -1.68279 l 0.10857,-18.56489 c 0,0 -9.28244,-7.97964 -9.77099,-9.33672 -0.48855,-1.35709 -0.75997,-2.9313 -0.75997,-2.9313 0,0 3.36557,2.38846 12.10518,2.33418 m 0,28.49873 h 1.68279 l -0.10857,-18.56489 c 0,0 9.28244,-7.97964 9.77099,-9.33672 0.48855,-1.35709 0.75997,-2.9313 0.75997,-2.9313 0,0 -3.36557,2.38846 -12.10518,2.33418" id="path3239"/>
    </g>
    <g id="g3932" style="fill:#00ff00;stroke:none;stroke-width:1.51548" transform="matrix(0.65985862,0,0,0.65985862,-18.459085,-17.599423)">
      <path id="path3813" style="fill:#00ff00;stroke:none;stroke-width:1.51548px;stroke-linecap:butt;stroke-linejoin:miter;stroke-opacity:1" d="m 345.15039,233.22266 -34.69922,34.69922 23.0293,24.4121 34.77734,-34.77734 h 24.33399 l 19.38476,-19.38281 h 50.02229 l -0.48855,-4.95117 z m 3.83789,4.83593 h 55.34961 l -15.12305,15.12305 h -56.04101 z m -19.26953,20.57422 h 29.70898 l -25.83203,25.83203 -14.54687,-15.16211 z m -160.6978,-25.41015 34.69922,34.69922 -23.0293,24.4121 -34.77734,-34.77734 H 121.57954 L 102.19478,238.17383 H 52.17249 l 0.48855,-4.95117 z m -3.83789,4.83593 h -55.34961 l 15.12305,15.12305 h 56.04101 z m 19.26953,20.57422 h -29.70898 l 25.83203,25.83203 14.54687,-15.16211 z"/>
      <path style="fill:#00ff00;stroke:none;stroke-width:1.51548px;stroke-linecap:butt;stroke-linejoin:miter;stroke-opacity:1" d="m 317.82448,238.44457 0.1357,8.5826 46.53507,-46.96933 h 90.59603 l -1.6285,-5.37377 h -92.34533 z m -121.47762,0 -0.1357,8.5826 -46.53507,-46.96933 H 59.08006 l 1.6285,-5.37377 h 92.34533 z" id="path3819"/>
      <path style="fill:#00ff00;stroke:none;stroke-width:1.51548px;stroke-linecap:butt;stroke-linejoin:miter;stroke-opacity:1" d="m 370.92383,213.56904 0.21713,4.45255 h 88.11123 l -1.02207,-5.52731 h -87.35126 z m -227.67632,0 -0.21713,4.45255 H 54.91915 l 1.02207,-5.52731 h 87.35126 z" id="path3821"/>
    </g>
  </g>
  <g id="layer5" style="display:inline">
    <path id="path894" style="fill:#ffffff;fill-opacity:1;stroke-width:1.51546" d="m 219.79492,94.472656 c -13.30012,0.250063 -20.96354,39.959794 -19.79547,88.695314 0.75244,31.03326 2.64082,58.60016 10.29379,74.37331 3.72742,-4.15123 9.99637,-6.32004 15.93918,-8.2405 4.34757,-1.36106 14.14359,-2.86301 14.14359,-2.86301 4.58672,-16.80992 3.16979,-39.18744 2.57632,-63.95502 -1.16853,-48.735 -9.85737,-88.257664 -23.15741,-88.010094 z m 74.5815,0 c 13.30012,0.250063 20.96354,39.959794 19.79547,88.695314 -0.75244,31.03326 -2.64082,58.60016 -10.29379,74.37331 -3.72742,-4.15123 -9.99637,-6.32004 -15.93918,-8.2405 -4.34757,-1.36106 -14.14359,-2.86301 -14.14359,-2.86301 -4.58672,-16.80992 -3.16979,-39.18744 -2.57632,-63.95502 1.16853,-48.735 9.85737,-88.257664 23.15741,-88.010094 z" transform="matrix(0.65985862,0,0,0.65985862,-18.459085,-17.599423)"/>
  </g>
</svg>
